#!OML:ASF H:\Not Pregnant\Project 1\Capture day 1\Session 1\non-pregnant.ASF
:FULLY-SPECIFIED
:DEGREES
1579
root -3.38597 16.1863 3.64721 -533.794 -83.2254 543.92
lowerback -1.29578 3.51606 7.2602
upperback -9.34915 4.59347 -1.03698
thorax -8.52235 1.51797 -5.38069
lowerneck 17.3297 -7.80111 -33.8545
upperneck -2.26815 -18.4233 38.052
head 3.8598 -11.2848 19.6661
rclavicle 4.44781e-014 1.33186e-014
rhumerus -42.3933 -18.2594 -70.0869
rradius 23.9075
rwrist 29.2145
rhand -10.1955 3.86752
rfingers 7.12502
rthumb 15.7954 -25.5081
lclavicle 4.44781e-014 1.33186e-014
lhumerus -49.5083 13.4371 75.1416
lradius 32.2998
lwrist 33.9649
lhand -1.61864 -6.24597
lfingers 7.12502
lthumb 24.0391 22.2685
rfemur -25.4904 5.53706 21.4945
rtibia 39.2489
rfoot -24.9218 2.9838
rtoes -16.1678
lfemur -27.5234 1.12056 -21.7133
ltibia 42.6
lfoot -25.6476 6.92742
ltoes -28.2983
1580
root -3.3824 16.1895 3.69416 -532.868 -83.025 543.085
lowerback -1.23878 3.58173 7.37963
upperback -9.37565 4.68687 -1.10331
thorax -8.55992 1.54876 -5.5265
lowerneck 17.2344 -7.78341 -33.8525
upperneck -2.24095 -18.3713 38.0665
head 3.86476 -11.2517 19.6771
rclavicle -9.49197e-015 -3.77691e-015
rhumerus -42.0278 -17.8483 -70.4029
rradius 23.9044
rwrist 29.1589
rhand -10.2006 3.80685
rfingers 7.12502
rthumb 15.7905 -25.5691
lclavicle -9.49197e-015 -3.77691e-015
lhumerus -49.4593 13.2175 75.1506
lradius 32.3436
lwrist 34.134
lhand 0.739761 -4.96605
lfingers 7.12502
lthumb 26.2987 23.231
rfemur -25.6783 5.51846 21.1805
rtibia 39.2456
rfoot -24.9462 3.14756
rtoes -16.3858
lfemur -27.7001 1.01043 -21.5829
ltibia 42.7635
lfoot -25.4222 7.74194
ltoes -28.3682
1581
root -3.38051 16.1928 3.73916 -531.664 -82.8022 541.962
lowerback -1.2028 3.64115 7.41009
upperback -9.39183 4.76659 -1.17115
thorax -8.58004 1.58094 -5.62214
lowerneck 17.1357 -7.75895 -33.8477
upperneck -2.21863 -18.307 38.0881
head 3.86465 -11.2128 19.6943
rclavicle 1.49089e-016 -1.19271e-014
rhumerus -41.659 -17.4776 -70.6931
rradius 23.8945
rwrist 29.1911
rhand -10.1927 3.75984
rfingers 7.12502
rthumb 15.7981 -25.6155
lclavicle 1.49089e-016 -1.19271e-014
lhumerus -49.3961 12.9636 75.151
lradius 32.3888
lwrist 34.2611
lhand 2.91661 -3.88693
lfingers 7.12502
lthumb 28.3809 23.9816
rfemur -25.8534 5.54838 20.8251
rtibia 39.2529
rfoot -24.9662 3.27672
rtoes -16.5875
lfemur -27.839 0.928545 -21.4543
ltibia 42.9075
lfoot -25.2083 8.45016
ltoes -28.3802
1582
root -3.38104 16.1963 3.77944 -530.475 -82.5575 540.81
lowerback -1.16886 3.69625 7.3501
upperback -9.38819 4.83798 -1.22836
thorax -8.58392 1.61847 -5.65485
lowerneck 17.0436 -7.72907 -33.8377
upperneck -2.20629 -18.2345 38.1183
head 3.85786 -11.1711 19.7179
rclavicle -1.14301e-014 -9.93923e-016
rhumerus -41.3062 -17.1835 -70.9375
rradius 23.8812
rwrist 29.3206
rhand -10.1683 3.75425
rfingers 7.12502
rthumb 15.8216 -25.6192
lclavicle -1.14301e-014 -9.93923e-016
lhumerus -49.3219 12.6545 75.159
lradius 32.4421
lwrist 34.392
lhand 4.7656 -3.11735
lfingers 7.12502
lthumb 30.1464 24.4433
rfemur -25.9654 5.65969 20.4734
rtibia 39.2649
rfoot -24.9823 3.33135
rtoes -16.7874
lfemur -27.8945 0.904601 -21.2841
ltibia 43.0267
lfoot -25.0348 8.97981
ltoes -28.2742
1583
root -3.38383 16.1999 3.81656 -529.215 -82.3013 539.555
lowerback -1.14206 3.74439 7.21082
upperback -9.36827 4.89679 -1.2828
thorax -8.57225 1.65777 -5.63884
lowerneck 16.955 -7.69677 -33.8186
upperneck -2.2019 -18.1558 38.1508
head 3.84492 -11.1266 19.7425
rclavicle -3.31473e-014 4.37326e-015
rhumerus -40.962 -16.9332 -71.1623
rradius 23.8697
rwrist 29.4737
rhand -10.1194 3.76484
rfingers 7.12502
rthumb 15.8686 -25.6049
lclavicle -3.31473e-014 4.37326e-015
lhumerus -49.2409 12.3108 75.1756
lradius 32.5009
lwrist 34.4986
lhand 6.16646 -2.72658
lfingers 7.12502
lthumb 31.4819 24.5819
rfemur -26.0283 5.82793 20.1074
rtibia 39.2829
rfoot -24.9985 3.31815
rtoes -17.0005
lfemur -27.8783 0.916387 -21.0916
ltibia 43.115
lfoot -24.881 9.37364
ltoes -28.191
1584
root -3.38777 16.2034 3.85399 -527.892 -82.0423 538.233
lowerback -1.12915 3.7905 7.04413
upperback -9.34365 4.94989 -1.34695
thorax -8.54916 1.69672 -5.61645
lowerneck 16.8748 -7.66399 -33.7838
upperneck -2.20864 -18.0729 38.1841
head 3.82402 -11.0808 19.7658
rclavicle 8.44835e-016 1.0138e-014
rhumerus -40.6276 -16.7117 -71.3788
rradius 23.8662
rwrist 29.5964
rhand -10.1012 3.76545
rfingers 7.12502
rthumb 15.8862 -25.6029
lclavicle 8.44835e-016 1.0138e-014
lhumerus -49.1525 11.9255 75.2138
lradius 32.5627
lwrist 34.5345
lhand 7.03766 -2.72669
lfingers 7.12502
lthumb 32.3115 24.4163
rfemur -26.0884 5.99885 19.7165
rtibia 39.3068
rfoot -25.0159 3.29865
rtoes -17.2097
lfemur -27.8361 0.923814 -20.8865
ltibia 43.1748
lfoot -24.7221 9.66958
ltoes -28.1758
1585
root -3.39271 16.2065 3.8917 -526.587 -81.7834 536.92
lowerback -1.12129 3.83746 6.86239
upperback -9.31536 5.00241 -1.42356
thorax -8.51929 1.7365 -5.59837
lowerneck 16.8109 -7.63304 -33.7209
upperneck -2.23076 -17.9886 38.2191
head 3.79241 -11.0357 19.7855
rclavicle -7.85199e-015 -1.41137e-014
rhumerus -40.3138 -16.5329 -71.5892
rradius 23.8749
rwrist 29.6757
rhand -10.0695 3.76789
rfingers 7.12502
rthumb 15.9167 -25.598
lclavicle -7.85199e-015 -1.41137e-014
lhumerus -49.0544 11.4778 75.2848
lradius 32.6186
lwrist 34.4398
lhand 7.30617 -3.10991
lfingers 7.12502
lthumb 32.5671 23.9807
rfemur -26.1414 6.18115 19.3125
rtibia 39.3396
rfoot -25.0338 3.26278
rtoes -17.4294
lfemur -27.763 0.923437 -20.6553
ltibia 43.2067
lfoot -24.5659 9.85288
ltoes -28.1846
1586
root -3.39856 16.2091 3.93029 -525.342 -81.5333 535.652
lowerback -1.11183 3.87707 6.68084
upperback -9.27937 5.04511 -1.50516
thorax -8.48312 1.77185 -5.5851
lowerneck 16.746 -7.60125 -33.6502
upperneck -2.25635 -17.9005 38.2559
head 3.75785 -10.9889 19.8053
rclavicle -5.26779e-014 -2.92213e-014
rhumerus -40.0092 -16.3789 -71.7939
rradius 23.896
rwrist 29.7149
rhand -10.0594 3.76794
rfingers 7.12502
rthumb 15.9264 -25.5972
lclavicle -5.26779e-014 -2.92213e-014
lhumerus -48.9466 10.9841 75.3914
lradius 32.659
lwrist 34.1816
lhand 6.9729 -3.81459
lfingers 7.12502
lthumb 32.2499 23.3409
rfemur -26.1792 6.36033 18.9027
rtibia 39.381
rfoot -25.0554 3.21492
rtoes -17.6623
lfemur -27.6542 0.903739 -20.3931
ltibia 43.2152
lfoot -24.4125 9.93808
ltoes -28.2056
1587
root -3.40517 16.2111 3.96968 -524.15 -81.2905 534.417
lowerback -1.0957 3.90697 6.49087
upperback -9.2317 5.07534 -1.5875
thorax -8.44046 1.80252 -5.56737
lowerneck 16.6741 -7.57003 -33.5713
upperneck -2.28621 -17.8079 38.2927
head 3.72062 -10.939 19.8232
rclavicle -6.26172e-014 -1.05356e-014
rhumerus -39.7061 -16.2357 -71.9983
rradius 23.9311
rwrist 29.7057
rhand -10.0377 3.77296
rfingers 7.12502
rthumb 15.9474 -25.5905
lclavicle -6.26172e-014 -1.05356e-014
lhumerus -48.8238 10.4512 75.5381
lradius 32.6756
lwrist 33.7669
lhand 6.05245 -4.7386
lfingers 7.12502
lthumb 31.3733 22.5911
rfemur -26.1955 6.54082 18.4865
rtibia 39.4306
rfoot -25.0806 3.16628
rtoes -17.8916
lfemur -27.5033 0.86739 -20.1021
ltibia 43.2012
lfoot -24.2544 9.94999
ltoes -28.2521
1588
root -3.41225 16.212 4.01008 -523.13 -81.0641 533.332
lowerback -1.06633 3.92526 6.31941
upperback -9.17211 5.09265 -1.66318
thorax -8.3938 1.82641 -5.55278
lowerneck 16.5894 -7.53929 -33.4962
upperneck -2.31733 -17.7125 38.3324
head 3.68522 -10.8869 19.8427
rclavicle -5.29264e-014 -2.18663e-014
rhumerus -39.4007 -16.0918 -72.206
rradius 23.9849
rwrist 29.6526
rhand -10.0518 3.75299
rfingers 7.12502
rthumb 15.9338 -25.6116
lclavicle -5.29264e-014 -2.18663e-014
lhumerus -48.6876 9.86417 75.7503
lradius 32.6742
lwrist 33.2356
lhand 4.55063 -5.77644
lfingers 7.12502
lthumb 29.9413 21.8214
rfemur -26.1885 6.72145 18.0871
rtibia 39.4872
rfoot -25.1088 3.09515
rtoes -18.1534
lfemur -27.3126 0.801097 -19.7591
ltibia 43.1692
lfoot -24.0997 9.89287
ltoes -28.2595
